<svg xmlns="http://www.w3.org/2000/svg" width="64" height="64" viewBox="0 0 64 64"><rect width="64" height="64" rx="14" fill="#0B3D2E"/><g transform="translate(8 6) scale(0.2)"><g transform="scale(1)">
    
  <defs>
    <linearGradient id="leafGradient" x1="110" y1="34" x2="110" y2="206" gradientUnits="userSpaceOnUse">
      <stop offset="0" stop-color="#2E9A5B"/>
      <stop offset="0.58" stop-color="#145A3A"/>
      <stop offset="1" stop-color="#06251C"/>
    </linearGradient>
    <linearGradient id="goldGradient" x1="116" y1="42" x2="148" y2="156" gradientUnits="userSpaceOnUse">
      <stop offset="0" stop-color="#F2C14E"/>
      <stop offset="1" stop-color="#D8A33A"/>
    </linearGradient>
    <filter id="softShadow" x="-20%" y="-20%" width="140%" height="140%">
      <feDropShadow dx="0" dy="10" stdDeviation="10" flood-color="#06251C" flood-opacity="0.18"/>
    </filter>
  </defs>
    
    <g >
      <path d="M120 18C78 42 46 80 46 125c0 52 36 87 74 101 38-14 74-49 74-101 0-45-32-83-74-107Z" fill="url(#leafGradient)"/>
      <path d="M120 37c-23 24-36 55-36 88 0 32 13 59 36 78 23-19 36-46 36-78 0-33-13-64-36-88Z" fill="#1F7A4D" opacity="0.42"/>
      <path d="M124 40c31 21 50 50 50 83 0 39-24 68-50 82V40Z" fill="url(#goldGradient)" opacity="1"/>
      <path d="M120 55v120" stroke="#F8F6EE" stroke-width="9" stroke-linecap="round" opacity="0.96"/>
      <path d="M119 88c-20 0-33-11-44-26" fill="none" stroke="#F8F6EE" stroke-width="8" stroke-linecap="round" opacity="0.9"/>
      <path d="M121 119c19 0 34-12 46-28" fill="none" stroke="#F8F6EE" stroke-width="8" stroke-linecap="round" opacity="0.9"/>
      <path d="M119 151c-18 0-33 11-45 26" fill="none" stroke="#F8F6EE" stroke-width="8" stroke-linecap="round" opacity="0.9"/>
      <circle cx="74" cy="62" r="8" fill="#F2C14E"/>
      <circle cx="167" cy="91" r="8" fill="#F2C14E"/>
      <circle cx="74" cy="177" r="8" fill="#F2C14E"/>
      <path d="M75 208c17 9 32 13 45 13s28-4 45-13" fill="none" stroke="#D8A33A" stroke-width="8" stroke-linecap="round" opacity="0.95"/>
    </g>
  </g></g></svg>